<svg width="316" height="356" viewBox="0 0 316 356" fill="none" xmlns="http://www.w3.org/2000/svg">
<path d="M227.36 238.78C231.149 239.253 233.989 262.932 234.466 265.772C239.676 293.241 218.837 342.018 220.259 350.069C220.731 352.909 222.626 351.491 223.575 349.124C234.942 325.444 248.2 299.397 253.884 283.769C257.673 273.351 264.302 248.249 258.618 245.882C248.196 241.62 235.411 239.253 227.36 238.78L227.36 238.78Z" fill="#00D6FF"/>
<path d="M127.91 242.09C144.012 282.344 137.855 351.96 137.855 353.38C137.855 356.696 141.172 356.696 142.117 350.54C143.539 342.962 152.062 276.661 155.851 262.927C168.163 219.829 247.726 234.513 268.561 247.298C307.393 270.505 305.499 339.646 308.342 354.328C308.815 356.223 310.236 355.75 310.709 354.328C313.076 347.223 318.287 280.922 314.026 236.408C312.131 209.888 295.557 166.322 253.881 152.588C237.779 147.377 206.049 147.854 189.475 152.116C183.318 153.537 154.905 147.381 154.905 147.381C152.065 161.588 151.115 161.588 137.854 182.901C129.803 195.213 117.963 216.526 123.647 230.26L127.91 242.09Z" fill="#00D6FF"/>
<path d="M97.6 91.0199C97.6 91.0199 96.1781 81.0746 83.866 79.1799C76.7605 78.2346 65.397 75.8635 65.397 75.8635C65.397 76.3362 70.6079 91.9655 77.237 95.7545C83.3932 99.5436 95.706 93.3874 95.233 99.071C94.7603 102.86 89.5494 115.173 93.8111 118.489C97.1275 121.329 106.123 126.54 106.123 126.54C109.439 116.122 121.279 119.911 121.752 127.962C126.486 127.016 133.119 121.333 135.486 118.489C139.748 113.755 134.064 105.704 135.013 100.02C135.959 94.809 144.01 101.442 148.747 100.965C158.693 100.02 165.321 91.4925 168.165 81.5472C154.431 78.7074 140.224 83.4417 132.645 94.3322C121.278 79.6522 104.227 83.9142 97.5984 91.0197L97.6 91.0199Z" fill="#00D6FF"/>
<path d="M120.8 130.8C119.855 122.749 115.116 121.327 111.327 122.749C108.96 123.694 107.538 127.011 107.066 129.855L95.2256 121.804C93.3311 134.589 81.9636 152.585 81.9636 165.847C81.9636 171.058 86.698 187.159 93.3306 198.523C96.647 204.679 101.381 214.152 122.218 229.781C110.378 214.152 142.109 171.531 142.109 171.531C148.265 162.535 153.949 145.957 151.581 142.644C136.901 122.753 139.741 116.124 137.847 118.964C133.59 126.062 120.8 130.8 120.8 130.8L120.8 130.8Z" fill="#00D6FF"/>
<path d="M100.91 85.34C99.9647 86.2853 101.855 66.399 89.07 66.399C81.0192 66.399 63.496 72.0826 56.867 69.7154C36.031 63.0865 18.98 50.7744 0.511963 39.8794C16.141 39.4067 29.399 55.0354 45.028 59.2974C52.6061 61.1919 58.762 65.9263 54.0241 50.774C51.6569 43.6685 46.446 39.407 36.9731 37.04C52.6021 32.3056 63.4931 53.142 66.8091 60.72C68.7036 64.9817 93.8011 57.8802 99.9611 59.2981C100.434 45.5641 71.0741 39.8801 64.4411 28.0401C65.863 30.8799 93.3281 42.2471 92.3821 37.0362C89.5423 23.3022 78.6481 8.14917 66.8081 0.571167C84.8041 8.14927 92.3821 20.9342 99.4841 37.5092C103.746 46.9819 108.007 62.1342 108.007 72.0792C108.007 79.6573 108.48 82.4972 108.48 82.4972C106.593 82.9737 104.226 82.0245 100.91 85.341L100.91 85.34Z" fill="#00D6FF"/>
<path d="M131.22 88.1799C132.165 89.1252 130.747 67.3439 143.06 67.3439C151.111 67.3439 168.634 73.0275 175.263 70.6603C196.099 64.0314 213.15 51.7193 231.618 40.8243C215.989 40.3517 202.731 55.9803 187.102 60.2423C179.524 62.1368 173.368 66.8712 178.106 51.7189C180.473 44.6134 185.684 40.3519 195.157 37.9849C179.528 33.2505 168.637 54.0869 165.321 61.6649C163.426 65.9266 138.329 58.8251 132.169 60.243C131.696 46.509 161.056 40.825 167.689 28.985C166.267 31.8248 138.802 43.192 139.748 37.9811C142.588 24.2471 153.482 9.09411 165.322 1.51611C147.326 9.09421 139.748 21.8791 132.646 38.4541C128.384 47.9268 124.122 63.0791 124.122 73.0241C124.122 80.6022 123.65 83.4421 123.65 83.4421C125.54 83.446 127.908 84.8679 131.22 88.1804L131.22 88.1799Z" fill="#00D6FF"/>
<path d="M92.39 202.32C125.066 286.617 121.753 339.18 120.804 347.23C120.331 351.492 124.593 354.808 125.066 346.285C127.433 334.918 125.538 235.945 120.804 232.155C116.07 228.366 111.331 225.049 108.019 221.264C94.285 207.998 92.39 202.319 92.39 202.319V202.32Z" fill="#00D6FF"/>
</svg>
